Coordinates
version=1
nRows=12
nColumns=24
inDegrees=yes

Units are S.I. units (second, meters, Newtons, ...)
Angles are in degrees.

endheader
time	pelvis_tilt	pelvis_list	pelvis_rotation	pelvis_tx	pelvis_ty	pelvis_tz	hip_flexion_r	hip_adduction_r	hip_rotation_r	knee_angle_r	ankle_angle_r	subtalar_angle_r	mtp_angle_r	hip_flexion_l	hip_adduction_l	hip_rotation_l	knee_angle_l	ankle_angle_l	subtalar_angle_l	mtp_angle_l	lumbar_extension	lumbar_bending	lumbar_rotation
      5.83000000	     -2.13034809	     -5.30998744	    -15.64565138	      1.47842064	      0.68063267	     -0.31621415	    -18.62011577	      8.54952065	     12.31573664	    -18.33207117	     15.32225444	      5.35176683	      0.00000000	     20.47440673	     -3.12762223	     15.61689304	      1.34269042	     -3.49345697	    -25.17467007	      0.00000000	    -15.00945349	      4.37212709	      6.37745538
      5.84000000	     -1.53429532	     -4.31074818	    -15.01614911	      1.49325411	      0.68119976	     -0.31630468	    -18.12961695	      7.17413049	      9.77330979	    -21.50108366	     13.58109134	      7.80224286	      0.00000000	     20.71147679	     -1.00017242	     16.30280658	     -1.65426015	     -4.57942103	    -25.89296514	      0.00000000	    -15.12048215	      3.14886084	      5.77243620
      5.85000000	     -0.92877176	     -3.19975978	    -14.43890728	      1.50808916	      0.68199502	     -0.31638280	    -17.42964207	      5.62173556	      7.56448114	    -24.90434966	     11.35300332	      9.93063186	      0.00000000	     20.91729879	      1.23454675	     16.74283869	     -4.72744221	     -5.44493427	    -26.24872018	      0.00000000	    -15.20473624	      1.77924427	      5.28914692
      5.86000000	     -0.32340300	     -2.15656968	    -13.90519846	      1.52267847	      0.68305264	     -0.31653239	    -16.50430070	      4.08393394	      5.68631908	    -28.54228620	      8.59527569	     11.74621836	      0.00000000	     21.00458949	      3.35934405	     16.97466389	     -7.67764448	     -5.95899937	    -26.17408629	      0.00000000	    -15.37850558	      0.50693898	      4.97244812
      5.87000000	      0.21910208	     -1.16434827	    -13.44492326	      1.53691021	      0.68415274	     -0.31659753	    -15.26254295	      2.59865242	      4.23169221	    -32.42037453	      5.61173654	     13.16345479	      0.00000000	     21.00371491	      5.33256429	     17.04890510	    -10.40328358	     -5.88871419	    -25.75534217	      0.00000000	    -15.56714601	     -0.71300893	      4.72664251
      5.88000000	      0.38175847	     -0.33189797	    -13.05505669	      1.55068126	      0.68503483	     -0.31659739	    -13.37555796	      1.37975157	      3.23934735	    -36.47340309	      2.40661150	     14.16024545	      0.00000000	     21.25523647	      6.94358920	     16.62630193	    -12.89364018	     -4.87724938	    -24.42099886	      0.00000000	    -15.39234530	     -1.62940701	      4.71521886
      5.89000000	      0.45007019	      0.49443339	    -12.88194511	      1.56396385	      0.68596978	     -0.31618748	    -11.12800027	      0.24061297	      2.82652954	    -40.63430712	     -0.68529681	     14.48835816	      0.00000000	     21.28437888	      8.32269464	     16.09282691	    -14.77155524	     -3.80247844	    -23.40856105	      0.00000000	    -15.17133129	     -2.59978602	      4.86461475
      5.90000000	      0.52150179	      1.32041044	    -12.84143181	      1.57685237	      0.68700700	     -0.31564369	     -8.66480677	     -0.87562252	      2.73889159	    -44.81587363	     -3.31348086	     14.60313759	      0.00000000	     20.92562376	      9.56081196	     15.75679692	    -15.93089735	     -2.77198926	    -22.88259896	      0.00000000	    -14.98668460	     -3.58101166	      5.10310054
      5.91000000	      0.37206525	      2.10702953	    -12.80011643	      1.58945174	      0.68793176	     -0.31502187	     -5.83071488	     -1.81120201	      2.84459497	    -48.89087972	     -5.42841332	     14.31906742	      0.00000000	     20.44466247	     10.61475013	     15.64633937	    -16.45803013	     -1.65121508	    -22.49874769	      0.00000000	    -14.52936787	     -4.44001323	      5.36566659
      5.92000000	      0.34337324	      2.88948568	    -12.78622775	      1.60171801	      0.68905631	     -0.31429879	     -3.04055143	     -2.68416729	      3.11498305	    -52.78247643	     -6.63210144	     13.74506394	      0.00000000	     19.48550944	     11.60677824	     15.80381353	    -16.33411198	     -0.71595303	    -22.55873504	      0.00000000	    -14.26892959	     -5.32430009	      5.44684723
      5.93000000	      0.17762732	      3.62396139	    -12.76154582	      1.61389453	      0.69017313	     -0.31350537	     -0.09304652	     -3.39533014	      3.50849790	    -56.39807647	     -6.94552276	     13.07655281	      0.00000000	     18.31594440	     12.43996938	     16.30965589	    -15.61339320	      0.03260360	    -22.84666321	      0.00000000	    -13.79043676	     -6.08931182	      5.48138901
      5.94000000	      0.03975927	      4.24134152	    -12.63819376	      1.62597548	      0.69148151	     -0.31273339	      2.75514014	     -3.92975108	      3.85794561	    -59.63384678	     -6.45546145	     12.28490900	      0.00000000	     16.83094008	     13.11733589	     17.16836657	    -14.45521271	      0.47838610	    -23.39279886	      0.00000000	    -13.37163519	     -6.69540474	      5.33259593
